<svg xmlns="http://www.w3.org/2000/svg" xmlns:xlink="http://www.w3.org/1999/xlink" width="500" zoomAndPan="magnify" viewBox="0 0 375 374.999991" height="500" preserveAspectRatio="xMidYMid meet" version="1.0"><defs><clipPath id="61cde09b03"><path d="M 0 240 L 109 240 L 109 348.75 L 0 348.75 Z M 0 240 " clip-rule="nonzero"/></clipPath></defs><path fill="#eedbbf" d="M 54.644531 120.023438 C 24.8125 120.023438 0.539062 144.300781 0.539062 174.132812 C 0.539062 203.96875 24.8125 228.238281 54.644531 228.238281 C 84.480469 228.238281 108.75 203.96875 108.75 174.132812 C 108.753906 144.300781 84.480469 120.023438 54.644531 120.023438 Z M 54.644531 222.304688 C 28.085938 222.304688 6.476562 200.695312 6.476562 174.132812 C 6.476562 147.570312 28.085938 125.964844 54.644531 125.964844 C 81.207031 125.964844 102.816406 147.574219 102.816406 174.132812 C 102.820312 200.695312 81.207031 222.304688 54.644531 222.304688 Z M 54.644531 222.304688 " fill-opacity="1" fill-rule="nonzero"/><path fill="#eedbbf" d="M 42.910156 173.945312 C 44.546875 173.945312 45.875 172.613281 45.875 170.976562 L 45.875 149.183594 C 45.875 147.542969 44.546875 146.214844 42.910156 146.214844 C 41.269531 146.214844 39.941406 147.542969 39.941406 149.183594 L 39.941406 170.976562 C 39.941406 172.617188 41.269531 173.945312 42.910156 173.945312 Z M 42.910156 173.945312 " fill-opacity="1" fill-rule="nonzero"/><path fill="#eedbbf" d="M 66.386719 173.945312 C 68.023438 173.945312 69.351562 172.613281 69.351562 170.976562 L 69.351562 149.183594 C 69.351562 147.542969 68.023438 146.214844 66.386719 146.214844 C 64.746094 146.214844 63.417969 147.542969 63.417969 149.183594 L 63.417969 170.976562 C 63.417969 172.617188 64.746094 173.945312 66.386719 173.945312 Z M 66.386719 173.945312 " fill-opacity="1" fill-rule="nonzero"/><path fill="#eedbbf" d="M 80.871094 176.082031 C 79.257812 175.738281 77.691406 176.769531 77.355469 178.375 C 77.1875 179.171875 73.050781 197.878906 54.644531 197.878906 C 36.339844 197.878906 32.105469 179.160156 31.933594 178.375 C 31.597656 176.769531 30.039062 175.742188 28.421875 176.082031 C 26.816406 176.417969 25.789062 177.992188 26.125 179.59375 C 27.882812 187.972656 36.105469 203.816406 54.644531 203.816406 C 73.183594 203.816406 81.40625 187.972656 83.164062 179.59375 C 83.503906 177.992188 82.476562 176.414062 80.871094 176.082031 Z M 80.871094 176.082031 " fill-opacity="1" fill-rule="nonzero"/><path fill="#eedbbf" d="M 371.492188 132.15625 L 135.890625 132.15625 C 134.253906 132.15625 132.921875 133.488281 132.921875 135.125 L 132.921875 160.191406 L 115.078125 171.636719 C 114.226562 172.179688 113.714844 173.121094 113.714844 174.132812 C 113.714844 175.144531 114.226562 176.085938 115.078125 176.632812 L 132.921875 188.078125 L 132.921875 213.140625 C 132.921875 214.78125 134.253906 216.109375 135.890625 216.109375 L 371.492188 216.109375 C 373.128906 216.109375 374.460938 214.78125 374.460938 213.140625 L 374.460938 135.121094 C 374.460938 133.484375 373.128906 132.15625 371.492188 132.15625 Z M 368.523438 210.171875 L 138.859375 210.171875 L 138.859375 186.457031 C 138.859375 185.445312 138.34375 184.503906 137.492188 183.957031 L 122.175781 174.132812 L 137.492188 164.308594 C 138.34375 163.761719 138.859375 162.820312 138.859375 161.808594 L 138.859375 138.089844 L 368.523438 138.089844 Z M 368.523438 210.171875 " fill-opacity="1" fill-rule="nonzero"/><path fill="#eedbbf" d="M 159.558594 177.101562 L 228.667969 177.101562 C 230.308594 177.101562 231.636719 175.773438 231.636719 174.132812 C 231.636719 172.496094 230.308594 171.167969 228.667969 171.167969 L 159.558594 171.167969 C 157.917969 171.167969 156.589844 172.496094 156.589844 174.132812 C 156.589844 175.773438 157.917969 177.101562 159.558594 177.101562 Z M 159.558594 177.101562 " fill-opacity="1" fill-rule="nonzero"/><path fill="#eedbbf" d="M 54.644531 0 C 24.8125 0 0.539062 24.273438 0.539062 54.105469 C 0.539062 83.9375 24.8125 108.210938 54.644531 108.210938 C 84.480469 108.210938 108.75 83.9375 108.75 54.105469 C 108.75 24.273438 84.480469 0 54.644531 0 Z M 54.644531 102.277344 C 28.085938 102.277344 6.476562 80.667969 6.476562 54.105469 C 6.476562 27.542969 28.085938 5.933594 54.644531 5.933594 C 81.207031 5.933594 102.816406 27.546875 102.816406 54.105469 C 102.816406 80.664062 81.207031 102.277344 54.644531 102.277344 Z M 54.644531 102.277344 " fill-opacity="1" fill-rule="nonzero"/><path fill="#eedbbf" d="M 42.910156 53.917969 C 44.546875 53.917969 45.875 52.589844 45.875 50.949219 L 45.875 29.15625 C 45.875 27.519531 44.546875 26.1875 42.910156 26.1875 C 41.269531 26.1875 39.941406 27.519531 39.941406 29.15625 L 39.941406 50.949219 C 39.941406 52.589844 41.269531 53.917969 42.910156 53.917969 Z M 42.910156 53.917969 " fill-opacity="1" fill-rule="nonzero"/><path fill="#eedbbf" d="M 66.386719 53.917969 C 68.023438 53.917969 69.351562 52.589844 69.351562 50.949219 L 69.351562 29.15625 C 69.351562 27.519531 68.023438 26.1875 66.386719 26.1875 C 64.746094 26.1875 63.417969 27.519531 63.417969 29.15625 L 63.417969 50.949219 C 63.417969 52.589844 64.746094 53.917969 66.386719 53.917969 Z M 66.386719 53.917969 " fill-opacity="1" fill-rule="nonzero"/><path fill="#eedbbf" d="M 80.261719 61.992188 L 29.03125 61.992188 C 28.140625 61.992188 27.292969 62.398438 26.730469 63.089844 C 26.164062 63.785156 25.945312 64.695312 26.128906 65.574219 C 27.886719 73.949219 36.109375 89.796875 54.648438 89.796875 C 73.1875 89.796875 81.410156 73.953125 83.167969 65.574219 C 83.351562 64.695312 83.132812 63.785156 82.566406 63.089844 C 82.003906 62.398438 81.15625 61.992188 80.261719 61.992188 Z M 54.644531 83.859375 C 41.074219 83.859375 35.238281 73.574219 33.054688 67.929688 L 76.253906 67.929688 C 74.097656 73.574219 68.292969 83.859375 54.644531 83.859375 Z M 54.644531 83.859375 " fill-opacity="1" fill-rule="nonzero"/><path fill="#eedbbf" d="M 371.492188 12.128906 L 135.890625 12.128906 C 134.253906 12.128906 132.921875 13.457031 132.921875 15.097656 L 132.921875 40.160156 L 115.078125 51.605469 C 114.226562 52.152344 113.714844 53.09375 113.714844 54.105469 C 113.714844 55.117188 114.226562 56.058594 115.078125 56.605469 L 132.921875 68.046875 L 132.921875 93.113281 C 132.921875 94.75 134.253906 96.078125 135.890625 96.078125 L 371.492188 96.078125 C 373.128906 96.078125 374.460938 94.75 374.460938 93.113281 L 374.460938 15.097656 C 374.460938 13.457031 373.128906 12.128906 371.492188 12.128906 Z M 368.523438 90.148438 L 138.859375 90.148438 L 138.859375 66.425781 C 138.859375 65.414062 138.34375 64.472656 137.492188 63.929688 L 122.175781 54.105469 L 137.492188 44.28125 C 138.34375 43.734375 138.859375 42.792969 138.859375 41.78125 L 138.859375 18.0625 L 368.523438 18.0625 Z M 368.523438 90.148438 " fill-opacity="1" fill-rule="nonzero"/><path fill="#eedbbf" d="M 159.558594 57.074219 L 178.21875 57.074219 C 179.859375 57.074219 181.1875 55.742188 181.1875 54.105469 C 181.1875 52.46875 179.859375 51.136719 178.21875 51.136719 L 159.558594 51.136719 C 157.917969 51.136719 156.589844 52.46875 156.589844 54.105469 C 156.589844 55.742188 157.917969 57.074219 159.558594 57.074219 Z M 159.558594 57.074219 " fill-opacity="1" fill-rule="nonzero"/><g clip-path="url(#61cde09b03)"><path fill="#eedbbf" d="M 54.644531 240.054688 C 24.8125 240.054688 0.539062 264.324219 0.539062 294.160156 C 0.539062 323.996094 24.8125 348.265625 54.644531 348.265625 C 84.480469 348.265625 108.75 323.992188 108.75 294.160156 C 108.75 264.324219 84.480469 240.054688 54.644531 240.054688 Z M 54.644531 342.328125 C 28.085938 342.328125 6.476562 320.71875 6.476562 294.160156 C 6.476562 267.597656 28.085938 245.988281 54.644531 245.988281 C 81.207031 245.988281 102.816406 267.597656 102.816406 294.160156 C 102.816406 320.71875 81.207031 342.328125 54.644531 342.328125 Z M 54.644531 342.328125 " fill-opacity="1" fill-rule="nonzero"/></g><path fill="#eedbbf" d="M 66.386719 293.972656 C 68.023438 293.972656 69.351562 292.644531 69.351562 291.003906 L 69.351562 269.210938 C 69.351562 267.570312 68.023438 266.242188 66.386719 266.242188 C 64.746094 266.242188 63.417969 267.570312 63.417969 269.210938 L 63.417969 291.003906 C 63.417969 292.644531 64.746094 293.972656 66.386719 293.972656 Z M 66.386719 293.972656 " fill-opacity="1" fill-rule="nonzero"/><path fill="#eedbbf" d="M 42.910156 293.972656 C 44.546875 293.972656 45.875 292.644531 45.875 291.003906 L 45.875 269.210938 C 45.875 267.570312 44.546875 266.242188 42.910156 266.242188 C 41.269531 266.242188 39.941406 267.570312 39.941406 269.210938 L 39.941406 291.003906 C 39.941406 292.644531 41.269531 293.972656 42.910156 293.972656 Z M 42.910156 293.972656 " fill-opacity="1" fill-rule="nonzero"/><path fill="#eedbbf" d="M 371.492188 252.183594 L 135.890625 252.183594 C 134.253906 252.183594 132.921875 253.511719 132.921875 255.152344 L 132.921875 280.214844 L 115.078125 291.660156 C 114.226562 292.207031 113.714844 293.148438 113.714844 294.160156 C 113.714844 295.171875 114.226562 296.113281 115.078125 296.65625 L 132.921875 308.105469 L 132.921875 333.164062 C 132.921875 334.808594 134.253906 336.132812 135.890625 336.132812 L 371.492188 336.132812 C 373.128906 336.132812 374.460938 334.808594 374.460938 333.164062 L 374.460938 255.152344 C 374.460938 253.511719 373.128906 252.183594 371.492188 252.183594 Z M 368.523438 330.199219 L 138.859375 330.199219 L 138.859375 306.484375 C 138.859375 305.472656 138.34375 304.53125 137.492188 303.984375 L 122.175781 294.160156 L 137.492188 284.332031 C 138.34375 283.789062 138.859375 282.847656 138.859375 281.835938 L 138.859375 258.117188 L 368.523438 258.117188 Z M 368.523438 330.199219 " fill-opacity="1" fill-rule="nonzero"/><path fill="#eedbbf" d="M 244.085938 177.101562 L 276.570312 177.101562 C 278.207031 177.101562 279.539062 175.773438 279.539062 174.132812 C 279.539062 172.496094 278.207031 171.167969 276.570312 171.167969 L 244.085938 171.167969 C 242.449219 171.167969 241.117188 172.496094 241.117188 174.132812 C 241.117188 175.773438 242.449219 177.101562 244.085938 177.101562 Z M 244.085938 177.101562 " fill-opacity="1" fill-rule="nonzero"/><path fill="#eedbbf" d="M 80.882812 302.28125 L 27.457031 311.007812 C 25.839844 311.273438 24.742188 312.800781 25.003906 314.414062 C 25.242188 315.867188 26.5 316.902344 27.929688 316.902344 C 28.089844 316.902344 28.25 316.890625 28.410156 316.863281 L 81.839844 308.140625 C 83.457031 307.871094 84.554688 306.347656 84.289062 304.734375 C 84.023438 303.117188 82.519531 302.03125 80.882812 302.28125 Z M 80.882812 302.28125 " fill-opacity="1" fill-rule="nonzero"/><path fill="#eedbbf" d="M 155.535156 288.125 L 276.570312 288.125 C 278.207031 288.125 279.539062 286.800781 279.539062 285.160156 C 279.539062 283.515625 278.207031 282.191406 276.570312 282.191406 L 155.535156 282.191406 C 153.898438 282.191406 152.566406 283.515625 152.566406 285.160156 C 152.566406 286.800781 153.898438 288.125 155.535156 288.125 Z M 155.535156 288.125 " fill-opacity="1" fill-rule="nonzero"/><path fill="#eedbbf" d="M 294.574219 288.125 L 325.664062 288.125 C 327.300781 288.125 328.632812 286.800781 328.632812 285.160156 C 328.632812 283.515625 327.300781 282.191406 325.664062 282.191406 L 294.574219 282.191406 C 292.9375 282.191406 291.605469 283.515625 291.605469 285.160156 C 291.605469 286.800781 292.933594 288.125 294.574219 288.125 Z M 294.574219 288.125 " fill-opacity="1" fill-rule="nonzero"/><path fill="#eedbbf" d="M 155.535156 311.144531 L 291.851562 311.144531 C 293.488281 311.144531 294.816406 309.820312 294.816406 308.179688 C 294.816406 306.539062 293.488281 305.210938 291.851562 305.210938 L 155.535156 305.210938 C 153.898438 305.210938 152.566406 306.539062 152.566406 308.179688 C 152.566406 309.820312 153.898438 311.144531 155.535156 311.144531 Z M 155.535156 311.144531 " fill-opacity="1" fill-rule="nonzero"/><path fill="#eedbbf" d="M 195.125 57.074219 L 333.214844 57.074219 C 334.855469 57.074219 336.183594 55.742188 336.183594 54.105469 C 336.183594 52.46875 334.855469 51.136719 333.214844 51.136719 L 195.125 51.136719 C 193.484375 51.136719 192.15625 52.46875 192.15625 54.105469 C 192.15625 55.742188 193.484375 57.074219 195.125 57.074219 Z M 195.125 57.074219 " fill-opacity="1" fill-rule="nonzero"/></svg>