<svg xmlns="http://www.w3.org/2000/svg" xmlns:xlink="http://www.w3.org/1999/xlink" width="500" zoomAndPan="magnify" viewBox="0 0 375 374.999991" height="500" preserveAspectRatio="xMidYMid meet" version="1.0"><defs><clipPath id="ecb7a70f8e"><path d="M 10.628906 18.75 L 375 18.75 L 375 356.25 L 10.628906 356.25 Z M 10.628906 18.75 " clip-rule="nonzero"/></clipPath></defs><g clip-path="url(#ecb7a70f8e)"><path fill="#eedbbf" d="M 360.09375 97.371094 C 360.09375 97.171875 360.09375 97.171875 360.09375 97.371094 L 360.09375 49.390625 C 360.09375 32.707031 346.960938 18.789062 330.871094 18.789062 L 39.847656 18.789062 C 23.757812 18.789062 10.628906 32.609375 10.628906 49.390625 L 10.628906 284.046875 C 10.628906 300.730469 23.757812 314.253906 39.847656 314.253906 L 192.566406 314.253906 C 210.828125 339.328125 240.640625 356.210938 274.207031 356.210938 C 329.785156 356.210938 374.898438 311.097656 374.898438 255.515625 C 375 237.058594 369.964844 218.792969 360.09375 203 Z M 39.847656 30.636719 L 330.871094 30.636719 C 340.445312 30.636719 348.246094 39.125 348.246094 49.390625 L 348.246094 91.445312 L 22.472656 91.445312 L 22.472656 49.390625 C 22.472656 39.125 30.273438 30.636719 39.847656 30.636719 Z M 39.847656 302.410156 C 30.273438 302.410156 22.472656 294.214844 22.472656 284.046875 L 22.472656 103.292969 L 348.246094 103.292969 L 348.246094 187.5 C 329.191406 166.769531 302.441406 155.023438 274.207031 155.023438 C 218.628906 155.023438 173.511719 200.136719 173.511719 255.617188 C 173.511719 272.003906 177.5625 288.09375 185.164062 302.507812 L 39.847656 302.507812 Z M 274.304688 344.363281 C 225.242188 344.363281 185.457031 304.582031 185.457031 255.515625 C 185.457031 206.453125 225.242188 166.671875 274.304688 166.671875 C 323.367188 166.671875 363.152344 206.453125 363.152344 255.515625 C 363.054688 304.480469 323.367188 344.363281 274.304688 344.363281 Z M 274.304688 344.363281 " fill-opacity="1" fill-rule="nonzero"/></g><path fill="#eedbbf" d="M 101.941406 83.746094 C 113.789062 83.746094 123.363281 73.777344 123.363281 61.632812 C 123.363281 49.492188 113.789062 39.519531 101.941406 39.519531 C 90.097656 39.519531 80.519531 49.390625 80.519531 61.535156 C 80.519531 73.675781 90.097656 83.746094 101.941406 83.746094 Z M 101.941406 51.269531 C 107.273438 51.269531 111.519531 55.90625 111.519531 61.535156 C 111.519531 67.160156 107.273438 71.800781 101.941406 71.800781 C 96.613281 71.800781 92.367188 67.160156 92.367188 61.535156 C 92.367188 55.90625 96.613281 51.269531 101.941406 51.269531 Z M 101.941406 51.269531 " fill-opacity="1" fill-rule="nonzero"/><path fill="#eedbbf" d="M 152.386719 83.746094 C 164.234375 83.746094 173.808594 73.777344 173.808594 61.632812 C 173.808594 49.492188 164.234375 39.519531 152.386719 39.519531 C 140.542969 39.519531 130.964844 49.390625 130.964844 61.535156 C 130.964844 73.675781 140.542969 83.746094 152.386719 83.746094 Z M 152.386719 51.269531 C 157.71875 51.269531 161.964844 55.90625 161.964844 61.535156 C 161.964844 67.160156 157.71875 71.800781 152.386719 71.800781 C 147.058594 71.800781 142.8125 67.160156 142.8125 61.535156 C 142.8125 55.90625 147.058594 51.269531 152.386719 51.269531 Z M 152.386719 51.269531 " fill-opacity="1" fill-rule="nonzero"/><path fill="#eedbbf" d="M 51.496094 83.746094 C 63.34375 83.746094 72.917969 73.777344 72.917969 61.632812 C 72.917969 49.492188 63.34375 39.519531 51.496094 39.519531 C 39.652344 39.519531 30.074219 49.390625 30.074219 61.535156 C 30.074219 73.675781 39.652344 83.746094 51.496094 83.746094 Z M 51.496094 51.269531 C 56.828125 51.269531 61.074219 55.90625 61.074219 61.535156 C 61.074219 67.160156 56.828125 71.800781 51.496094 71.800781 C 46.167969 71.800781 41.921875 67.160156 41.921875 61.535156 C 41.921875 55.90625 46.265625 51.269531 51.496094 51.269531 Z M 51.496094 51.269531 " fill-opacity="1" fill-rule="nonzero"/><path fill="#eedbbf" d="M 273.515625 206.652344 C 258.015625 206.652344 245.480469 211.785156 236.988281 221.460938 C 229.289062 230.34375 225.144531 242.882812 225.144531 257.589844 C 225.144531 272.792969 229.488281 285.332031 237.976562 293.917969 C 245.480469 301.617188 255.84375 305.765625 267.097656 305.765625 C 275.984375 305.765625 292.667969 303.199219 292.667969 296.78125 C 292.667969 294.808594 290.988281 291.054688 287.828125 291.054688 C 286.546875 291.15625 285.066406 291.550781 283.882812 292.140625 C 279.144531 293.917969 274.207031 294.90625 269.171875 294.707031 C 243.109375 294.707031 237.582031 274.472656 237.582031 257.492188 C 237.582031 224.71875 257.03125 217.808594 273.316406 217.808594 C 296.320312 217.808594 308.066406 230.738281 308.066406 256.308594 C 308.066406 273.976562 302.636719 275.851562 300.269531 275.851562 C 298.492188 275.851562 296.320312 275.164062 295.628906 269.4375 L 295.628906 245.742188 C 295.628906 232.515625 284.175781 226.59375 272.628906 226.59375 C 260.582031 226.59375 252.292969 231.726562 252.292969 236.265625 C 252.292969 238.734375 254.167969 243.375 257.03125 243.375 C 258.117188 243.277344 259.300781 242.882812 260.089844 242.289062 C 263.25 240.511719 267 239.523438 270.652344 239.722656 C 278.15625 239.722656 281.511719 242.683594 281.511719 249.199219 L 281.511719 250.582031 L 277.464844 250.582031 C 258.3125 250.582031 248.933594 256.503906 248.933594 268.351562 C 248.933594 279.703125 257.917969 284.933594 266.804688 284.933594 C 273.515625 284.933594 279.144531 282.074219 284.078125 275.953125 C 285.757812 281.875 291.679688 285.824219 298.984375 285.824219 C 314.484375 285.824219 320.109375 269.238281 320.109375 253.640625 C 320.40625 224.222656 302.835938 206.652344 273.515625 206.652344 Z M 282.398438 259.367188 L 282.398438 263.414062 C 282.398438 268.941406 276.476562 274.570312 270.355469 274.570312 C 266.40625 274.570312 264.335938 272.199219 264.335938 268.152344 C 264.335938 262.230469 269.171875 259.367188 279.339844 259.367188 Z M 282.398438 259.367188 " fill-opacity="1" fill-rule="nonzero"/></svg>