<svg xmlns="http://www.w3.org/2000/svg" xmlns:xlink="http://www.w3.org/1999/xlink" width="500" zoomAndPan="magnify" viewBox="0 0 375 374.999991" height="500" preserveAspectRatio="xMidYMid meet" version="1.0"><defs><clipPath id="214dcea6fe"><path d="M 4.21875 0 L 370.96875 0 L 370.96875 375 L 4.21875 375 Z M 4.21875 0 " clip-rule="nonzero"/></clipPath></defs><path fill="#eedbbf" d="M 270.933594 56.441406 L 195.949219 81.4375 L 199.90625 93.292969 L 274.886719 68.296875 L 270.933594 56.441406 " fill-opacity="1" fill-rule="nonzero"/><path fill="#eedbbf" d="M 29.214844 249.832031 L 235.417969 249.832031 L 235.417969 237.332031 L 29.214844 237.332031 L 29.214844 249.832031 " fill-opacity="1" fill-rule="nonzero"/><path fill="#eedbbf" d="M 29.214844 274.824219 L 235.417969 274.824219 L 235.417969 262.328125 L 29.214844 262.328125 L 29.214844 274.824219 " fill-opacity="1" fill-rule="nonzero"/><g clip-path="url(#214dcea6fe)"><path fill="#eedbbf" d="M 268.554688 285.019531 C 257.371094 266.410156 257.835938 243.089844 269.972656 224.882812 L 271.082031 223.222656 L 347.359375 177.457031 C 342.511719 192.59375 344.644531 209.355469 353.777344 223.054688 L 357.871094 229.195312 Z M 357.378906 304.492188 L 268.46875 360.058594 C 257.25 341.441406 257.707031 318.09375 269.859375 299.867188 L 271.097656 298.007812 C 271.753906 297.695312 272.394531 297.359375 273.015625 296.96875 L 343.425781 252.964844 C 340.714844 271.179688 345.617188 289.789062 357.378906 304.492188 Z M 255.542969 287.324219 L 22.964844 287.324219 C 19.519531 287.324219 16.714844 284.519531 16.714844 281.074219 L 16.714844 225.410156 C 16.714844 225.21875 16.734375 225.023438 16.753906 224.835938 L 255.542969 224.835938 C 245.484375 244.480469 245.484375 267.679688 255.542969 287.324219 Z M 255.425781 362.304688 L 54.207031 362.304688 C 50.761719 362.304688 47.960938 359.503906 47.960938 356.058594 L 47.960938 299.820312 L 255.425781 299.820312 C 245.367188 319.460938 245.367188 342.664062 255.425781 362.304688 Z M 96.929688 170.433594 C 97.476562 170.664062 98.03125 170.875 98.609375 171.054688 L 186.089844 198.390625 C 187.917969 198.960938 189.800781 199.25 191.679688 199.25 C 193.558594 199.25 195.441406 198.960938 197.269531 198.390625 L 284.75 171.054688 C 289.453125 169.582031 293.226562 166.417969 295.503906 162.347656 L 348.246094 162.347656 L 264.933594 212.339844 L 31.742188 212.339844 Z M 97.949219 96.0625 L 185.429688 123.210938 L 185.429688 185.09375 L 102.332031 159.125 C 99.710938 158.304688 97.949219 155.910156 97.949219 153.164062 Z M 197.925781 123.210938 L 285.410156 96.0625 L 285.410156 153.164062 C 285.410156 155.910156 283.644531 158.304688 281.023438 159.125 L 197.925781 185.09375 Z M 358.707031 243.414062 L 364.496094 239.796875 C 367.386719 237.988281 369.371094 235.15625 370.089844 231.828125 C 370.804688 228.496094 370.164062 225.101562 368.269531 222.265625 L 364.175781 216.121094 C 355.054688 202.433594 355.054688 184.75 364.179688 171.058594 L 365.363281 169.28125 C 367.925781 165.441406 368.164062 160.523438 365.984375 156.453125 C 363.808594 152.382812 359.585938 149.851562 354.964844 149.851562 L 297.90625 149.851562 L 297.90625 92.1875 L 355.515625 74.304688 C 360.769531 72.675781 364.308594 67.878906 364.308594 62.371094 C 364.308594 56.863281 360.769531 52.066406 355.515625 50.433594 L 197.371094 1.355469 C 193.601562 0.1875 189.632812 0.226562 185.886719 1.476562 L 152.210938 12.703125 L 156.164062 24.558594 L 189.839844 13.332031 C 191.085938 12.914062 192.410156 12.902344 193.667969 13.289062 L 351.808594 62.371094 L 193.53125 111.488281 C 192.320312 111.867188 191.039062 111.867188 189.828125 111.488281 L 31.875 62.472656 L 74.75 49.609375 L 71.15625 37.636719 L 28.28125 50.5 C 22.984375 52.089844 19.402344 56.878906 19.378906 62.414062 C 19.351562 67.949219 22.886719 72.769531 28.171875 74.40625 L 29.214844 74.730469 L 29.214844 123.128906 L 11.359375 152.882812 L 22.074219 159.316406 L 29.214844 147.417969 L 29.214844 168.597656 L 41.710938 168.597656 L 41.710938 147.417969 L 48.851562 159.316406 L 59.566406 152.882812 L 41.710938 123.128906 L 41.710938 78.609375 L 85.453125 92.183594 L 85.453125 153.164062 C 85.453125 156.199219 86.175781 159.085938 87.472656 161.652344 L 12.828125 209.640625 C 7.4375 213.105469 4.21875 219.003906 4.21875 225.410156 L 4.21875 281.074219 C 4.21875 291.410156 12.628906 299.820312 22.964844 299.820312 L 35.460938 299.820312 L 35.460938 356.058594 C 35.460938 366.394531 43.871094 374.804688 54.207031 374.804688 L 263.078125 374.804688 C 266.59375 374.804688 270.03125 373.816406 273.015625 371.953125 L 364 315.085938 C 367.023438 313.199219 369.097656 310.101562 369.695312 306.589844 C 370.296875 303.074219 369.359375 299.464844 367.136719 296.683594 C 355.558594 282.214844 352.148438 263.082031 358.007812 245.503906 L 358.707031 243.414062 " fill-opacity="1" fill-rule="nonzero"/></g><path fill="#eedbbf" d="M 60.457031 324.816406 L 235.417969 324.816406 L 235.417969 312.316406 L 60.457031 312.316406 L 60.457031 324.816406 " fill-opacity="1" fill-rule="nonzero"/><path fill="#eedbbf" d="M 60.457031 349.808594 L 235.417969 349.808594 L 235.417969 337.3125 L 60.457031 337.3125 L 60.457031 349.808594 " fill-opacity="1" fill-rule="nonzero"/><path fill="#eedbbf" d="M 116.695312 27.921875 C 119.230469 31.628906 122.441406 34.839844 126.148438 37.375 C 122.441406 39.910156 119.230469 43.121094 116.695312 46.828125 C 114.160156 43.121094 110.949219 39.910156 107.242188 37.375 C 110.949219 34.839844 114.160156 31.628906 116.695312 27.921875 Z M 110.445312 67.058594 L 110.445312 68.617188 L 122.945312 68.617188 L 122.945312 67.058594 C 122.945312 54.136719 133.453125 43.625 146.375 43.625 L 147.9375 43.625 L 147.9375 31.128906 L 146.375 31.128906 C 133.453125 31.128906 122.945312 20.617188 122.945312 7.695312 L 122.945312 6.132812 L 110.445312 6.132812 L 110.445312 7.695312 C 110.445312 20.617188 99.933594 31.128906 87.011719 31.128906 L 85.453125 31.128906 L 85.453125 43.625 L 87.011719 43.625 C 99.933594 43.625 110.445312 54.136719 110.445312 67.058594 " fill-opacity="1" fill-rule="nonzero"/></svg>