<svg xmlns="http://www.w3.org/2000/svg" xmlns:xlink="http://www.w3.org/1999/xlink" width="500" zoomAndPan="magnify" viewBox="0 0 375 374.999991" height="500" preserveAspectRatio="xMidYMid meet" version="1.0"><path fill="#eedbbf" d="M 67.894531 140.082031 C 67.300781 140.082031 66.710938 139.996094 66.191406 139.738281 C 63.980469 138.800781 63.042969 136.253906 63.980469 134.128906 C 77.664062 102.609375 102.480469 77.796875 134 64.109375 C 136.210938 63.171875 138.671875 64.195312 139.609375 66.320312 C 140.546875 68.53125 139.523438 70.992188 137.398438 71.929688 C 107.914062 84.675781 84.632812 108.042969 71.800781 137.527344 C 71.121094 139.058594 69.597656 140.082031 67.894531 140.082031 Z M 307.105469 140.082031 C 305.402344 140.082031 303.878906 139.144531 303.199219 137.539062 C 290.453125 108.054688 267.085938 84.773438 237.601562 71.941406 C 235.390625 71 234.453125 68.457031 235.390625 66.332031 C 236.328125 64.121094 238.875 63.183594 241 64.121094 C 272.519531 77.804688 297.335938 102.621094 311.019531 134.140625 C 311.957031 136.351562 310.933594 138.8125 308.808594 139.75 C 308.203125 139.910156 307.699219 140.082031 307.105469 140.082031 Z M 135.703125 311.394531 C 135.113281 311.394531 134.519531 311.308594 134 311.050781 C 102.480469 297.367188 77.664062 272.554688 63.980469 241.03125 C 63.042969 238.820312 64.066406 236.363281 66.191406 235.421875 C 68.402344 234.484375 70.859375 235.511719 71.800781 237.632812 C 84.546875 267.117188 107.914062 290.398438 137.398438 303.234375 C 139.609375 304.171875 140.546875 306.714844 139.609375 308.839844 C 138.941406 310.457031 137.410156 311.394531 135.703125 311.394531 Z M 239.296875 311.394531 C 237.589844 311.394531 236.070312 310.457031 235.390625 308.851562 C 234.453125 306.640625 235.476562 304.183594 237.601562 303.242188 C 267.085938 290.496094 290.367188 267.128906 303.199219 237.644531 C 304.140625 235.433594 306.683594 234.496094 308.808594 235.433594 C 311.019531 236.371094 311.957031 238.917969 311.019531 241.042969 C 297.335938 272.5625 272.519531 297.378906 241 311.0625 C 240.480469 311.308594 239.886719 311.394531 239.296875 311.394531 Z M 239.296875 311.394531 " fill-opacity="1" fill-rule="evenodd"/><path fill="#eedbbf" d="M 187.542969 8.714844 C 160.777344 8.714844 138.941406 30.464844 138.941406 57.316406 C 138.941406 84.082031 160.691406 105.917969 187.542969 105.917969 C 214.308594 105.917969 236.144531 84.167969 236.144531 57.316406 C 236.058594 30.464844 214.308594 8.714844 187.542969 8.714844 Z M 187.542969 114.417969 C 156.023438 114.417969 130.355469 88.75 130.355469 57.230469 C 130.355469 25.707031 156.023438 0.0429688 187.542969 0.0429688 C 219.066406 0.0429688 244.730469 25.707031 244.730469 57.230469 C 244.644531 88.761719 219.066406 114.417969 187.542969 114.417969 Z M 187.542969 114.417969 " fill-opacity="1" fill-rule="evenodd"/><path fill="#eedbbf" d="M 187.542969 269.242188 C 160.777344 269.242188 138.941406 290.992188 138.941406 317.84375 C 138.941406 344.609375 160.691406 366.449219 187.542969 366.449219 C 214.308594 366.449219 236.144531 344.609375 236.144531 317.84375 C 236.058594 291.089844 214.308594 269.242188 187.542969 269.242188 Z M 187.542969 374.957031 C 156.023438 374.957031 130.355469 349.292969 130.355469 317.769531 C 130.355469 286.25 156.023438 260.582031 187.542969 260.582031 C 219.066406 260.582031 244.730469 286.25 244.730469 317.769531 C 244.644531 349.378906 219.066406 374.957031 187.542969 374.957031 Z M 187.542969 374.957031 " fill-opacity="1" fill-rule="evenodd"/><path fill="#eedbbf" d="M 57.1875 138.984375 C 30.421875 138.984375 8.585938 160.734375 8.585938 187.585938 C 8.585938 214.351562 30.335938 236.1875 57.1875 236.1875 C 83.953125 236.1875 105.789062 214.4375 105.789062 187.585938 C 105.789062 160.734375 84.039062 138.984375 57.1875 138.984375 Z M 57.1875 244.6875 C 25.664062 244.6875 0 219.019531 0 187.5 C 0 155.980469 25.664062 130.3125 57.1875 130.3125 C 88.707031 130.3125 114.375 155.980469 114.375 187.5 C 114.375 219.109375 88.71875 244.6875 57.1875 244.6875 Z M 57.1875 244.6875 " fill-opacity="1" fill-rule="evenodd"/><path fill="#eedbbf" d="M 317.8125 138.984375 C 291.046875 138.984375 269.210938 160.734375 269.210938 187.585938 C 269.210938 214.351562 290.960938 236.1875 317.8125 236.1875 C 344.578125 236.1875 366.414062 214.4375 366.414062 187.585938 C 366.328125 160.734375 344.578125 138.984375 317.8125 138.984375 Z M 317.8125 244.6875 C 286.292969 244.6875 260.625 219.019531 260.625 187.5 C 260.625 155.980469 286.292969 130.3125 317.8125 130.3125 C 349.335938 130.3125 375 155.980469 375 187.5 C 374.914062 219.109375 349.335938 244.6875 317.8125 244.6875 Z M 317.8125 244.6875 " fill-opacity="1" fill-rule="evenodd"/><path fill="#eedbbf" d="M 177.933594 81.449219 C 175.550781 81.449219 173.597656 79.5 173.597656 77.117188 L 173.597656 40.492188 C 173.597656 38.542969 174.871094 36.835938 176.75 36.332031 L 214.988281 26.128906 C 216.261719 25.785156 217.621094 26.042969 218.730469 26.894531 C 219.753906 27.746094 220.433594 28.933594 220.433594 30.292969 L 220.433594 68.273438 C 220.433594 70.65625 218.480469 72.609375 216.097656 72.609375 C 213.714844 72.609375 211.765625 70.65625 211.765625 68.273438 L 211.765625 35.898438 L 182.109375 43.804688 L 182.109375 77.203125 C 182.183594 79.5 180.230469 81.449219 177.933594 81.449219 Z M 177.933594 81.449219 " fill-opacity="1" fill-rule="evenodd"/><path fill="#eedbbf" d="M 168.421875 74.3125 C 165.273438 74.3125 163.234375 76.015625 163.234375 77.117188 C 163.234375 78.300781 165.273438 79.917969 168.421875 79.917969 C 171.570312 79.917969 173.609375 78.214844 173.609375 77.117188 C 173.609375 76.015625 171.5625 74.3125 168.421875 74.3125 Z M 168.421875 88.589844 C 160.691406 88.589844 154.652344 83.574219 154.652344 77.117188 C 154.652344 70.742188 160.679688 65.640625 168.421875 65.640625 C 176.15625 65.640625 182.195312 70.65625 182.195312 77.117188 C 182.183594 83.574219 176.15625 88.589844 168.421875 88.589844 Z M 168.421875 88.589844 " fill-opacity="1" fill-rule="evenodd"/><path fill="#eedbbf" d="M 206.578125 65.394531 C 203.429688 65.394531 201.390625 67.097656 201.390625 68.199219 C 201.390625 69.382812 203.429688 71 206.578125 71 C 209.726562 71 211.765625 69.296875 211.765625 68.199219 C 211.851562 67.085938 209.800781 65.394531 206.578125 65.394531 Z M 206.578125 79.660156 C 198.84375 79.660156 192.804688 74.644531 192.804688 68.1875 C 192.804688 61.8125 198.832031 56.710938 206.578125 56.710938 C 214.308594 56.710938 220.347656 61.726562 220.347656 68.1875 C 220.421875 74.644531 214.308594 79.660156 206.578125 79.660156 Z M 206.578125 79.660156 " fill-opacity="1" fill-rule="evenodd"/><path fill="#eedbbf" d="M 187.542969 345.386719 C 189.160156 345.386719 190.765625 345.730469 192.300781 346.488281 C 193.742188 347.167969 195.1875 347.511719 196.71875 347.511719 C 204.195312 347.511719 210.824219 337.828125 210.824219 326.773438 C 210.824219 315.980469 204.367188 306.890625 196.71875 306.890625 C 194.421875 306.890625 192.210938 307.65625 190.175781 309.273438 C 188.644531 310.457031 186.519531 310.457031 184.988281 309.273438 C 182.949219 307.65625 180.738281 306.890625 178.441406 306.890625 C 170.796875 306.890625 164.421875 315.980469 164.421875 326.773438 C 164.421875 337.816406 170.96875 347.511719 178.441406 347.511719 C 179.972656 347.511719 181.417969 347.167969 182.863281 346.488281 C 184.308594 345.722656 185.925781 345.386719 187.542969 345.386719 Z M 196.71875 356.097656 C 193.917969 356.097656 191.199219 355.503906 188.566406 354.230469 C 187.886719 353.886719 187.121094 353.886719 186.53125 354.230469 C 183.898438 355.503906 181.179688 356.097656 178.375 356.097656 C 165.890625 356.097656 155.6875 342.929688 155.6875 326.773438 C 155.6875 311.050781 165.890625 298.304688 178.375 298.304688 C 181.527344 298.304688 184.664062 299.15625 187.554688 300.6875 C 190.445312 299.070312 193.582031 298.304688 196.730469 298.304688 C 209.21875 298.304688 219.421875 311.050781 219.421875 326.773438 C 219.324219 342.917969 209.207031 356.097656 196.71875 356.097656 Z M 196.71875 356.097656 " fill-opacity="1" fill-rule="evenodd"/><path fill="#eedbbf" d="M 189.582031 308.765625 C 187.199219 308.765625 185.246094 306.8125 185.246094 304.429688 L 185.246094 283.863281 C 185.246094 281.480469 187.199219 279.53125 189.582031 279.53125 C 191.964844 279.53125 193.917969 281.480469 193.917969 283.863281 L 193.917969 304.429688 C 193.832031 306.800781 191.964844 308.765625 189.582031 308.765625 Z M 189.582031 308.765625 " fill-opacity="1" fill-rule="evenodd"/><path fill="#eedbbf" d="M 190.433594 313.433594 C 188.652344 313.433594 186.949219 312.335938 186.355469 310.542969 C 186.269531 310.199219 185.589844 309.691406 185.503906 309.691406 C 183.378906 308.59375 182.613281 306.035156 183.726562 303.914062 C 184.824219 301.789062 187.382812 301.023438 189.503906 302.132812 C 190.097656 302.476562 193.335938 304.257812 194.519531 307.914062 C 195.285156 310.125 194.101562 312.582031 191.804688 313.347656 C 191.359375 313.347656 190.941406 313.433594 190.433594 313.433594 Z M 190.433594 313.433594 " fill-opacity="1" fill-rule="evenodd"/><path fill="#eedbbf" d="M 41.894531 161.15625 C 35.78125 161.15625 30.851562 166.082031 30.851562 172.199219 C 30.851562 184.859375 43.773438 198.628906 57.285156 212.140625 C 70.699219 198.628906 83.703125 184.78125 83.703125 172.207031 C 83.703125 166.09375 78.777344 161.164062 72.660156 161.164062 C 67.3125 161.164062 64.671875 163.289062 61.1875 170.34375 C 60.421875 171.789062 58.976562 172.726562 57.359375 172.726562 C 55.742188 172.726562 54.210938 171.789062 53.53125 170.34375 C 49.875 163.28125 47.15625 161.15625 41.894531 161.15625 Z M 57.1875 222.515625 C 56.085938 222.515625 54.976562 222.09375 54.125 221.242188 C 38.402344 205.519531 22.171875 189.289062 22.171875 172.207031 C 22.171875 161.414062 31.015625 152.582031 41.796875 152.582031 C 49.195312 152.582031 53.867188 155.730469 57.175781 160.054688 C 60.488281 155.71875 65.082031 152.582031 72.554688 152.582031 C 83.347656 152.582031 92.179688 161.425781 92.179688 172.207031 C 92.179688 189.375 75.949219 205.605469 60.226562 221.242188 C 59.484375 222.085938 58.375 222.515625 57.1875 222.515625 Z M 57.1875 222.515625 " fill-opacity="1" fill-rule="evenodd"/><path fill="#eedbbf" d="M 306.933594 166.167969 C 306.078125 166.167969 305.226562 166.429688 304.386719 166.933594 C 302.683594 167.875 301.84375 169.480469 301.84375 171.441406 L 301.84375 203.816406 C 301.84375 205.769531 302.695312 207.300781 304.386719 208.324219 C 306.089844 209.261719 307.871094 209.261719 309.574219 208.324219 L 337.613281 192.179688 C 339.316406 191.242188 340.15625 189.636719 340.15625 187.671875 C 340.15625 185.71875 339.304688 184.1875 337.613281 183.25 L 309.574219 167.109375 C 308.636719 166.429688 307.785156 166.167969 306.933594 166.167969 Z M 306.933594 217.5 C 304.546875 217.5 302.175781 216.90625 300.050781 215.636719 C 295.714844 213.164062 293.171875 208.667969 293.171875 203.742188 L 293.171875 171.367188 C 293.171875 166.4375 295.714844 161.929688 300.050781 159.472656 C 304.386719 157.003906 309.488281 157.003906 313.824219 159.472656 L 341.859375 175.617188 C 346.195312 178.085938 348.742188 182.582031 348.742188 187.511719 C 348.742188 192.4375 346.195312 196.945312 341.859375 199.40625 L 313.824219 215.550781 C 311.613281 216.898438 309.316406 217.5 306.933594 217.5 Z M 306.933594 217.5 " fill-opacity="1" fill-rule="evenodd"/><path fill="#eedbbf" d="M 151.6875 230.753906 L 223.324219 230.753906 C 221.199219 212.90625 205.90625 198.972656 187.46875 198.972656 C 169.101562 198.972656 153.8125 212.90625 151.6875 230.753906 Z M 227.90625 239.339844 L 147.179688 239.339844 C 144.796875 239.339844 142.84375 237.386719 142.84375 235.003906 C 142.84375 210.363281 162.902344 190.304688 187.542969 190.304688 C 212.183594 190.304688 232.242188 210.363281 232.242188 235.003906 C 232.15625 237.460938 230.28125 239.339844 227.90625 239.339844 Z M 227.90625 239.339844 " fill-opacity="1" fill-rule="evenodd"/><path fill="#eedbbf" d="M 187.542969 144.332031 C 174.796875 144.332031 164.519531 154.695312 164.519531 167.355469 C 164.519531 180.101562 174.882812 190.378906 187.542969 190.378906 C 200.289062 190.378906 210.566406 180.015625 210.566406 167.355469 C 210.566406 154.695312 200.203125 144.332031 187.542969 144.332031 Z M 187.542969 198.972656 C 170.128906 198.972656 155.933594 184.78125 155.933594 167.367188 C 155.933594 149.949219 170.128906 135.757812 187.542969 135.757812 C 204.960938 135.757812 219.152344 149.949219 219.152344 167.367188 C 219.152344 184.78125 204.960938 198.972656 187.542969 198.972656 Z M 187.542969 198.972656 " fill-opacity="1" fill-rule="evenodd"/></svg>