<svg xmlns="http://www.w3.org/2000/svg" xmlns:xlink="http://www.w3.org/1999/xlink" width="500" zoomAndPan="magnify" viewBox="0 0 375 374.999991" height="500" preserveAspectRatio="xMidYMid meet" version="1.0"><defs><clipPath id="754d095f9c"><path d="M 0 63.351562 L 317 63.351562 L 317 298 L 0 298 Z M 0 63.351562 " clip-rule="nonzero"/></clipPath></defs><path fill="#eedbbf" d="M 134.765625 239.132812 C 131.542969 239.132812 128.90625 241.769531 128.90625 244.992188 C 128.90625 248.214844 131.542969 250.851562 134.765625 250.851562 L 181.640625 250.851562 C 184.863281 250.851562 187.5 248.214844 187.5 244.992188 C 187.5 241.769531 184.863281 239.132812 181.640625 239.132812 Z M 134.765625 239.132812 " fill-opacity="1" fill-rule="nonzero"/><path fill="#eedbbf" d="M 53.027344 243.234375 C 53.027344 243.5625 52.996094 243.886719 52.933594 244.207031 C 52.867188 244.527344 52.773438 244.839844 52.648438 245.140625 C 52.523438 245.441406 52.371094 245.730469 52.1875 246 C 52.007812 246.273438 51.800781 246.523438 51.570312 246.757812 C 51.335938 246.988281 51.085938 247.195312 50.8125 247.375 C 50.542969 247.558594 50.253906 247.710938 49.953125 247.835938 C 49.652344 247.960938 49.339844 248.054688 49.019531 248.117188 C 48.699219 248.183594 48.375 248.214844 48.046875 248.214844 C 47.71875 248.214844 47.394531 248.183594 47.074219 248.117188 C 46.753906 248.054688 46.441406 247.960938 46.140625 247.835938 C 45.839844 247.710938 45.550781 247.558594 45.28125 247.375 C 45.007812 247.195312 44.757812 246.988281 44.523438 246.757812 C 44.292969 246.523438 44.085938 246.273438 43.90625 246 C 43.722656 245.730469 43.570312 245.441406 43.445312 245.140625 C 43.320312 244.839844 43.226562 244.527344 43.160156 244.207031 C 43.097656 243.886719 43.066406 243.5625 43.066406 243.234375 C 43.066406 242.90625 43.097656 242.582031 43.160156 242.261719 C 43.226562 241.941406 43.320312 241.628906 43.445312 241.328125 C 43.570312 241.027344 43.722656 240.738281 43.90625 240.46875 C 44.085938 240.195312 44.292969 239.945312 44.523438 239.710938 C 44.757812 239.480469 45.007812 239.273438 45.28125 239.09375 C 45.550781 238.910156 45.839844 238.757812 46.140625 238.632812 C 46.441406 238.507812 46.753906 238.414062 47.074219 238.347656 C 47.394531 238.285156 47.71875 238.253906 48.046875 238.253906 C 48.375 238.253906 48.699219 238.285156 49.019531 238.347656 C 49.339844 238.414062 49.652344 238.507812 49.953125 238.632812 C 50.253906 238.757812 50.542969 238.910156 50.8125 239.09375 C 51.085938 239.273438 51.335938 239.480469 51.570312 239.710938 C 51.800781 239.945312 52.007812 240.195312 52.1875 240.46875 C 52.371094 240.738281 52.523438 241.027344 52.648438 241.328125 C 52.773438 241.628906 52.867188 241.941406 52.933594 242.261719 C 52.996094 242.582031 53.027344 242.90625 53.027344 243.234375 Z M 53.027344 243.234375 " fill-opacity="1" fill-rule="nonzero"/><path fill="#eedbbf" d="M 33.398438 243.234375 C 33.398438 243.5625 33.367188 243.886719 33.304688 244.207031 C 33.238281 244.527344 33.144531 244.839844 33.019531 245.140625 C 32.894531 245.441406 32.742188 245.730469 32.558594 246 C 32.378906 246.273438 32.171875 246.523438 31.941406 246.757812 C 31.707031 246.988281 31.457031 247.195312 31.183594 247.375 C 30.914062 247.558594 30.625 247.710938 30.324219 247.835938 C 30.023438 247.960938 29.710938 248.054688 29.390625 248.117188 C 29.070312 248.183594 28.746094 248.214844 28.417969 248.214844 C 28.089844 248.214844 27.765625 248.183594 27.445312 248.117188 C 27.125 248.054688 26.8125 247.960938 26.511719 247.835938 C 26.210938 247.710938 25.921875 247.558594 25.652344 247.375 C 25.378906 247.195312 25.128906 246.988281 24.894531 246.757812 C 24.664062 246.523438 24.457031 246.273438 24.277344 246 C 24.09375 245.730469 23.941406 245.441406 23.816406 245.140625 C 23.691406 244.839844 23.597656 244.527344 23.53125 244.207031 C 23.46875 243.886719 23.4375 243.5625 23.4375 243.234375 C 23.4375 242.90625 23.46875 242.582031 23.53125 242.261719 C 23.597656 241.941406 23.691406 241.628906 23.816406 241.328125 C 23.941406 241.027344 24.09375 240.738281 24.277344 240.46875 C 24.457031 240.195312 24.664062 239.945312 24.894531 239.710938 C 25.128906 239.480469 25.378906 239.273438 25.652344 239.09375 C 25.921875 238.910156 26.210938 238.757812 26.511719 238.632812 C 26.8125 238.507812 27.125 238.414062 27.445312 238.347656 C 27.765625 238.285156 28.089844 238.253906 28.417969 238.253906 C 28.746094 238.253906 29.070312 238.285156 29.390625 238.347656 C 29.710938 238.414062 30.023438 238.507812 30.324219 238.632812 C 30.625 238.757812 30.914062 238.910156 31.183594 239.09375 C 31.457031 239.273438 31.707031 239.480469 31.941406 239.710938 C 32.171875 239.945312 32.378906 240.195312 32.558594 240.46875 C 32.742188 240.738281 32.894531 241.027344 33.019531 241.328125 C 33.144531 241.628906 33.238281 241.941406 33.304688 242.261719 C 33.367188 242.582031 33.398438 242.90625 33.398438 243.234375 Z M 33.398438 243.234375 " fill-opacity="1" fill-rule="nonzero"/><path fill="#eedbbf" d="M 130.957031 109.933594 C 129.199219 107.296875 125.390625 106.417969 122.753906 108.175781 L 70.019531 143.332031 C 68.261719 144.503906 67.382812 146.261719 67.382812 148.3125 C 67.382812 150.363281 68.261719 152.121094 70.019531 153.292969 C 70.019531 153.292969 122.753906 188.449219 122.753906 188.449219 C 125.390625 190.207031 129.199219 189.621094 130.957031 186.691406 C 132.714844 184.054688 132.128906 180.246094 129.199219 178.488281 L 83.789062 148.3125 L 129.199219 118.136719 C 131.835938 116.378906 132.714844 112.570312 130.957031 109.933594 Z M 130.957031 109.933594 " fill-opacity="1" fill-rule="nonzero"/><path fill="#eedbbf" d="M 185.449219 186.691406 C 187.207031 189.328125 191.015625 190.207031 193.652344 188.449219 L 246.386719 153.292969 C 248.144531 152.121094 249.023438 150.363281 249.023438 148.3125 C 249.023438 146.261719 248.144531 144.503906 246.386719 143.332031 L 193.652344 108.175781 C 191.015625 106.417969 187.207031 107.003906 185.449219 109.933594 C 183.691406 112.570312 184.277344 116.378906 187.207031 118.136719 L 232.617188 148.3125 L 187.207031 178.488281 C 184.570312 180.246094 183.691406 184.054688 185.449219 186.691406 Z M 185.449219 186.691406 " fill-opacity="1" fill-rule="nonzero"/><path fill="#eedbbf" d="M 164.355469 102.902344 L 140.917969 190.792969 C 140.039062 194.015625 142.089844 197.238281 145.019531 197.824219 C 145.605469 197.824219 145.898438 198.117188 146.484375 198.117188 C 149.121094 198.117188 151.464844 196.359375 152.050781 193.722656 L 175.488281 105.832031 C 176.367188 102.609375 174.316406 99.386719 171.386719 98.800781 C 168.457031 97.921875 165.234375 99.679688 164.355469 102.902344 Z M 164.355469 102.902344 " fill-opacity="1" fill-rule="nonzero"/><g clip-path="url(#754d095f9c)"><path fill="#eedbbf" d="M 134.765625 286.007812 L 117.1875 286.007812 C 113.964844 286.007812 111.328125 288.644531 111.328125 291.867188 C 111.328125 295.089844 113.964844 297.726562 117.1875 297.726562 L 199.21875 297.726562 C 202.441406 297.726562 205.078125 295.089844 205.078125 291.867188 C 205.078125 288.644531 202.441406 286.007812 199.21875 286.007812 L 181.640625 286.007812 L 181.640625 268.429688 L 298.828125 268.429688 C 306.445312 268.429688 312.890625 263.449219 315.234375 256.710938 L 309.082031 256.710938 C 306.445312 256.710938 304.101562 256.417969 301.757812 255.539062 C 300.878906 256.125 299.707031 256.710938 298.535156 256.710938 L 17.578125 256.710938 C 14.355469 256.710938 11.71875 254.074219 11.71875 250.851562 L 11.71875 233.273438 L 259.570312 233.273438 L 258.691406 232.394531 C 255.761719 229.464844 253.417969 225.65625 252.246094 221.554688 L 11.71875 221.554688 L 11.71875 80.929688 C 11.71875 77.707031 14.355469 75.070312 17.578125 75.070312 L 298.828125 75.070312 C 302.050781 75.070312 304.6875 77.707031 304.6875 80.929688 L 304.6875 110.8125 C 306.152344 110.519531 307.617188 110.226562 309.375 110.226562 L 316.40625 110.226562 L 316.40625 80.929688 C 316.40625 71.261719 308.496094 63.351562 298.828125 63.351562 L 17.578125 63.351562 C 7.910156 63.351562 0 71.261719 0 80.929688 L 0 250.851562 C 0 260.519531 7.910156 268.429688 17.578125 268.429688 L 134.765625 268.429688 Z M 146.484375 268.429688 L 169.921875 268.429688 L 169.921875 286.007812 L 146.484375 286.007812 Z M 146.484375 268.429688 " fill-opacity="1" fill-rule="nonzero"/></g><path fill="#eedbbf" d="M 363.574219 165.011719 C 362.988281 163.546875 362.402344 162.375 361.816406 160.910156 C 365.625 155.34375 365.039062 147.726562 360.058594 142.746094 L 354.199219 136.886719 C 351.5625 134.25 347.753906 132.785156 343.945312 132.785156 C 341.015625 132.785156 338.378906 133.664062 336.035156 135.128906 C 334.863281 134.542969 333.398438 133.957031 331.933594 133.371094 C 330.46875 126.632812 324.609375 121.945312 317.871094 121.945312 L 309.667969 121.945312 C 302.636719 121.945312 296.777344 126.925781 295.605469 133.371094 C 294.140625 133.957031 292.96875 134.542969 291.503906 135.128906 C 289.160156 133.664062 286.523438 132.785156 283.59375 132.785156 C 279.785156 132.785156 275.976562 134.25 273.339844 136.886719 L 267.480469 142.746094 C 262.5 147.726562 261.914062 155.34375 265.722656 160.910156 C 265.136719 162.082031 264.550781 163.546875 263.964844 165.011719 C 257.226562 166.476562 252.539062 172.335938 252.539062 179.074219 L 252.539062 187.277344 C 252.539062 194.308594 257.519531 200.167969 263.964844 201.339844 C 264.550781 202.804688 265.136719 203.976562 265.722656 205.441406 C 264.257812 207.785156 263.378906 210.421875 263.378906 213.351562 C 263.378906 217.160156 264.84375 220.96875 267.480469 223.605469 L 273.339844 229.464844 C 275.976562 232.101562 279.785156 233.566406 283.59375 233.566406 C 286.523438 233.566406 289.160156 232.6875 291.503906 231.222656 C 292.675781 231.808594 294.140625 232.394531 295.605469 232.980469 C 297.070312 239.71875 302.929688 244.40625 309.667969 244.40625 L 317.871094 244.40625 C 324.902344 244.40625 330.761719 239.425781 331.933594 232.980469 C 333.398438 232.394531 334.570312 231.808594 336.035156 231.222656 C 338.378906 232.6875 341.015625 233.566406 343.945312 233.566406 C 347.753906 233.566406 351.5625 232.101562 354.199219 229.464844 L 360.058594 223.605469 C 362.695312 220.96875 364.160156 217.160156 364.160156 213.351562 C 364.160156 210.421875 363.28125 207.785156 361.816406 205.441406 C 362.402344 204.269531 362.988281 202.804688 363.574219 201.339844 C 370.3125 199.875 375 194.015625 375 187.277344 L 375 179.074219 C 375 172.335938 370.019531 166.476562 363.574219 165.011719 Z M 363.28125 187.570312 C 363.28125 189.035156 362.109375 190.207031 360.644531 190.207031 L 354.492188 190.207031 C 353.320312 196.652344 350.976562 202.21875 347.460938 207.199219 L 351.855469 211.59375 C 353.027344 212.765625 353.027344 214.523438 351.855469 215.402344 L 345.996094 221.261719 C 345.410156 221.847656 344.824219 222.140625 343.945312 222.140625 C 343.066406 222.140625 342.480469 221.847656 341.894531 221.261719 L 337.5 216.867188 C 332.519531 220.382812 326.660156 223.019531 320.507812 223.898438 L 320.507812 230.050781 C 320.507812 231.515625 319.335938 232.6875 317.871094 232.6875 L 309.667969 232.6875 C 308.203125 232.6875 307.03125 231.515625 307.03125 230.050781 L 307.03125 224.484375 C 300.585938 223.3125 295.019531 220.96875 290.039062 217.453125 L 285.058594 221.554688 C 284.472656 222.140625 283.886719 222.433594 283.007812 222.433594 C 282.128906 222.433594 281.835938 222.140625 281.25 221.554688 L 275.390625 215.695312 C 274.21875 214.523438 274.21875 212.765625 275.390625 211.886719 L 279.785156 207.492188 C 276.269531 202.511719 273.632812 196.652344 272.753906 190.5 L 266.601562 190.5 C 265.136719 190.5 263.964844 189.328125 263.964844 187.863281 L 263.964844 179.660156 C 263.964844 178.195312 265.136719 177.023438 266.601562 177.023438 L 272.460938 177.023438 C 273.632812 170.578125 275.976562 165.011719 279.492188 160.03125 L 275.390625 155.050781 C 274.21875 153.878906 274.21875 152.121094 275.390625 151.242188 L 281.25 145.382812 C 281.835938 144.796875 282.421875 144.503906 283.300781 144.503906 C 284.179688 144.503906 284.765625 144.796875 285.351562 145.382812 L 289.746094 149.777344 C 294.726562 146.261719 300.585938 143.625 306.738281 142.746094 L 306.738281 136.59375 C 306.738281 135.128906 307.910156 133.957031 309.375 133.957031 L 317.578125 133.957031 C 319.042969 133.957031 320.214844 135.128906 320.214844 136.59375 L 320.214844 142.453125 C 326.660156 143.625 332.226562 145.96875 337.207031 149.484375 L 341.601562 145.089844 C 342.1875 144.503906 342.773438 144.210938 343.652344 144.210938 C 344.53125 144.210938 345.117188 144.503906 345.703125 145.089844 L 351.5625 150.949219 C 352.734375 152.121094 352.734375 153.878906 351.5625 154.757812 L 347.167969 159.152344 C 350.683594 164.132812 353.320312 169.992188 354.199219 176.144531 L 360.351562 176.144531 C 361.816406 176.144531 362.988281 177.316406 362.988281 178.78125 L 362.988281 187.570312 Z M 363.28125 187.570312 " fill-opacity="1" fill-rule="nonzero"/><path fill="#eedbbf" d="M 313.476562 160.03125 C 300.585938 160.03125 290.039062 170.578125 290.039062 183.46875 C 290.039062 196.359375 300.585938 206.90625 313.476562 206.90625 C 326.367188 206.90625 336.914062 196.359375 336.914062 183.46875 C 336.914062 170.578125 326.367188 160.03125 313.476562 160.03125 Z M 313.476562 195.1875 C 307.03125 195.1875 301.757812 189.914062 301.757812 183.46875 C 301.757812 177.023438 307.03125 171.75 313.476562 171.75 C 319.921875 171.75 325.195312 177.023438 325.195312 183.46875 C 325.195312 189.914062 319.921875 195.1875 313.476562 195.1875 Z M 313.476562 195.1875 " fill-opacity="1" fill-rule="nonzero"/></svg>